HIERARCHY
ROOT Hips
{
	OFFSET -14.64140 90.27770 -84.91600
	CHANNELS 6 Xposition Yposition Zposition Zrotation Xrotation Yrotation
	JOINT Spine
	{
		OFFSET 0.00000 13.20850 -1.60436
		CHANNELS 3 Zrotation Xrotation Yrotation
		JOINT Spine1
		{
			OFFSET 0.00000 8.61716 0.00000
			CHANNELS 3 Zrotation Xrotation Yrotation
			JOINT Spine2
			{
				OFFSET 0.00000 8.61717 0.00000
				CHANNELS 3 Zrotation Xrotation Yrotation
				JOINT Spine3
				{
					OFFSET 0.00000 8.61717 0.00000
					CHANNELS 3 Zrotation Xrotation Yrotation
					JOINT Neck
					{
						OFFSET 0.00000 11.07920 1.10792
						CHANNELS 3 Zrotation Xrotation Yrotation
						JOINT Neck1
						{
							OFFSET 0.00000 7.08032 0.00000
							CHANNELS 3 Zrotation Xrotation Yrotation
							JOINT Head
							{
								OFFSET 0.00000 7.08031 0.00000
								CHANNELS 3 Zrotation Xrotation Yrotation
								End site
								{
									OFFSET 0.00000 0.00000 0.00000
								}
							}
						}
					}
					JOINT RightShoulder
					{
						OFFSET -0.01000 7.91373 5.19711
						CHANNELS 3 Zrotation Xrotation Yrotation
						JOINT RightArm
						{
							OFFSET -18.41580 0.00000 0.00000
							CHANNELS 3 Zrotation Xrotation Yrotation
							JOINT RightForeArm
							{
								OFFSET -29.11090 0.00000 0.00000
								CHANNELS 3 Zrotation Xrotation Yrotation
								JOINT RightHand
								{
									OFFSET -24.65040 0.00000 0.00000
									CHANNELS 3 Zrotation Xrotation Yrotation
									JOINT RightHandThumb1
									{
										OFFSET -5.35114 -0.85590 3.97906
										CHANNELS 3 Zrotation Xrotation Yrotation
										JOINT RightHandThumb2
										{
											OFFSET -4.52789 0.00000 0.00000
											CHANNELS 3 Zrotation Xrotation Yrotation
											JOINT RightHandThumb3
											{
												OFFSET -2.46976 0.00000 0.00000
												CHANNELS 3 Zrotation Xrotation Yrotation
												End site
												{
													OFFSET 0.00000 0.00000 0.00000
												}
											}
										}
									}
									JOINT RightHandIndex1
									{
										OFFSET -14.26970 0.00000 2.88139
										CHANNELS 3 Zrotation Xrotation Yrotation
										JOINT RightHandIndex2
										{
											OFFSET -5.48836 0.00000 0.00000
											CHANNELS 3 Zrotation Xrotation Yrotation
											JOINT RightHandIndex3
											{
												OFFSET -3.01859 0.00000 0.00000
												CHANNELS 3 Zrotation Xrotation Yrotation
												End site
												{
													OFFSET 0.00000 0.00000 0.00000
												}
											}
										}
									}
									JOINT RightHandMiddle1
									{
										OFFSET -14.26970 0.00000 -0.09147
										CHANNELS 3 Zrotation Xrotation Yrotation
										JOINT RightHandMiddle2
										{
											OFFSET -6.17441 0.00000 0.00000
											CHANNELS 3 Zrotation Xrotation Yrotation
											JOINT RightHandMiddle3
											{
												OFFSET -3.56743 0.00000 0.00000
												CHANNELS 3 Zrotation Xrotation Yrotation
												End site
												{
													OFFSET 0.00000 0.00000 0.00000
												}
											}
										}
									}
									JOINT RightHandRing1
									{
										OFFSET -12.69180 0.00000 -3.06433
										CHANNELS 3 Zrotation Xrotation Yrotation
										JOINT RightHandRing2
										{
											OFFSET -5.62556 0.00000 0.00000
											CHANNELS 3 Zrotation Xrotation Yrotation
											JOINT RightHandRing3
											{
												OFFSET -3.56744 0.00000 0.00000
												CHANNELS 3 Zrotation Xrotation Yrotation
												End site
												{
													OFFSET 0.00000 0.00000 0.00000
												}
											}
										}
									}
									JOINT RightHandPinky1
									{
										OFFSET -11.11390 0.00000 -6.03719
										CHANNELS 3 Zrotation Xrotation Yrotation
										JOINT RightHandPinky2
										{
											OFFSET -4.52789 0.00000 0.00000
											CHANNELS 3 Zrotation Xrotation Yrotation
											JOINT RightHandPinky3
											{
												OFFSET -2.46976 0.00000 0.00000
												CHANNELS 3 Zrotation Xrotation Yrotation
												End site
												{
													OFFSET 0.00000 0.00000 0.00000
												}
											}
										}
									}
								}
							}
						}
					}
					JOINT LeftShoulder
					{
						OFFSET 0.01000 7.91373 5.19711
						CHANNELS 3 Zrotation Xrotation Yrotation
						JOINT LeftArm
						{
							OFFSET 18.41580 0.00000 0.00000
							CHANNELS 3 Zrotation Xrotation Yrotation
							JOINT LeftForeArm
							{
								OFFSET 29.11090 0.00000 0.00000
								CHANNELS 3 Zrotation Xrotation Yrotation
								JOINT LeftHand
								{
									OFFSET 24.65040 0.00000 0.00000
									CHANNELS 3 Zrotation Xrotation Yrotation
									JOINT LeftHandThumb1
									{
										OFFSET 5.35114 -0.85590 3.97906
										CHANNELS 3 Zrotation Xrotation Yrotation
										JOINT LeftHandThumb2
										{
											OFFSET 4.52789 0.00000 0.00000
											CHANNELS 3 Zrotation Xrotation Yrotation
											JOINT LeftHandThumb3
											{
												OFFSET 2.46977 0.00000 0.00000
												CHANNELS 3 Zrotation Xrotation Yrotation
												End site
												{
													OFFSET 0.00000 0.00000 0.00000
												}
											}
										}
									}
									JOINT LeftHandIndex1
									{
										OFFSET 14.26970 0.00000 2.88139
										CHANNELS 3 Zrotation Xrotation Yrotation
										JOINT LeftHandIndex2
										{
											OFFSET 5.48836 0.00000 0.00000
											CHANNELS 3 Zrotation Xrotation Yrotation
											JOINT LeftHandIndex3
											{
												OFFSET 3.01859 0.00000 0.00000
												CHANNELS 3 Zrotation Xrotation Yrotation
												End site
												{
													OFFSET 0.00000 0.00000 0.00000
												}
											}
										}
									}
									JOINT LeftHandMiddle1
									{
										OFFSET 14.26970 0.00000 -0.09147
										CHANNELS 3 Zrotation Xrotation Yrotation
										JOINT LeftHandMiddle2
										{
											OFFSET 6.17440 0.00000 0.00000
											CHANNELS 3 Zrotation Xrotation Yrotation
											JOINT LeftHandMiddle3
											{
												OFFSET 3.56744 0.00000 0.00000
												CHANNELS 3 Zrotation Xrotation Yrotation
												End site
												{
													OFFSET 0.00000 0.00000 0.00000
												}
											}
										}
									}
									JOINT LeftHandRing1
									{
										OFFSET 12.69180 0.00000 -3.06433
										CHANNELS 3 Zrotation Xrotation Yrotation
										JOINT LeftHandRing2
										{
											OFFSET 5.62556 0.00000 0.00000
											CHANNELS 3 Zrotation Xrotation Yrotation
											JOINT LeftHandRing3
											{
												OFFSET 3.56744 0.00000 0.00000
												CHANNELS 3 Zrotation Xrotation Yrotation
												End site
												{
													OFFSET 0.00000 0.00000 0.00000
												}
											}
										}
									}
									JOINT LeftHandPinky1
									{
										OFFSET 11.11390 0.00000 -6.03719
										CHANNELS 3 Zrotation Xrotation Yrotation
										JOINT LeftHandPinky2
										{
											OFFSET 4.52789 0.00000 0.00000
											CHANNELS 3 Zrotation Xrotation Yrotation
											JOINT LeftHandPinky3
											{
												OFFSET 2.46976 0.00000 0.00000
												CHANNELS 3 Zrotation Xrotation Yrotation
												End site
												{
													OFFSET 0.00000 0.00000 0.00000
												}
											}
										}
									}
								}
							}
						}
					}
					JOINT pCube4
					{
						OFFSET 0.00000 10.91090 1.10792
						CHANNELS 3 Zrotation Xrotation Yrotation
						End site
						{
							OFFSET 0.00000 0.00000 0.00000
						}
					}
				}
			}
		}
	}
	JOINT RightUpLeg
	{
		OFFSET -9.98441 0.00000 0.00000
		CHANNELS 3 Zrotation Xrotation Yrotation
		JOINT RightLeg
		{
			OFFSET 0.00000 -42.11790 0.00000
			CHANNELS 3 Zrotation Xrotation Yrotation
			JOINT RightFoot
			{
				OFFSET 0.00000 -45.00020 -0.00001
				CHANNELS 3 Zrotation Xrotation Yrotation
				JOINT RightForeFoot
				{
					OFFSET 0.00000 -3.74820 0.00000
					CHANNELS 3 Zrotation Xrotation Yrotation
					JOINT RightToeBase
					{
						OFFSET 0.00000 0.06325 14.43120
						CHANNELS 3 Zrotation Xrotation Yrotation
						End site
						{
							OFFSET 0.00000 0.00000 0.00000
						}
					}
				}
			}
		}
	}
	JOINT LeftUpLeg
	{
		OFFSET 9.98441 0.00000 0.00000
		CHANNELS 3 Zrotation Xrotation Yrotation
		JOINT LeftLeg
		{
			OFFSET 0.00000 -42.11800 0.00000
			CHANNELS 3 Zrotation Xrotation Yrotation
			JOINT LeftFoot
			{
				OFFSET 0.00000 -45.00070 0.00000
				CHANNELS 3 Zrotation Xrotation Yrotation
				JOINT LeftForeFoot
				{
					OFFSET 0.00000 -3.74824 0.00000
					CHANNELS 3 Zrotation Xrotation Yrotation
					JOINT LeftToeBase
					{
						OFFSET 0.00000 0.06325 14.43110
						CHANNELS 3 Zrotation Xrotation Yrotation
						End site
						{
							OFFSET 0.00000 0.00000 0.00000
						}
					}
				}
			}
		}
	}
}
MOTION
Frames: 4
Frame Time: 0.050000
0.03991024184272535 -0.02296226814215954 0.017658970348872625 0.01873875238174518 -0.042053488091576136 -0.024383262638099444 3.4940762563875847 4.514993544024725 -1.8463824462657763 -0.7839803455359513 3.4735532696363496 0.3551532094806144 -0.6526978627735094 -1.1303335847464275 -0.42667043573810187 -0.44237488010034054 -0.43024438246112134 -0.5660676324111387 -0.3687983688081173 12.51536342768722 -1.1084659855729158 0.3000514202778234 -0.34256007996105553 -2.5037824460038087 0.656633066581847 -16.5567151211465 -0.2035355696082336 -9.19035672938831 3.296414335165556 -16.792920347761356 72.9975576058711 -6.531225035958327 1.716969428739542 1.3425709886442405 0.5436317400390087 67.06901853536937 16.25461109229436 -0.38930391183976165 -1.970628697847804 4.5719866597027465 -0.16791665652520105 -1.5947042419712805 0.018754764952739676 -0.02045431853523288 -56.25274146099177 0.004426238977434794 0.003928340812631442 -56.21012409204699 -38.72478185733699 -0.01864643446670657 -0.032470153838290876 0.01353993793288578 0.045341902213755295 -0.015850158301461102 -0.0395212826995137 -0.009319195110427718 0.016470643586771725 -36.71792675111337 -0.03181812325281852 -0.013596470715719584 0.031324437072920035 -0.017008941053990635 0.030344165472262773 -0.01159749716958754 -0.002282105806769781 0.004236622527599568 -19.78840369865626 0.018378246336307153 -0.039154980105946924 0.034688557295357116 0.014999126883711203 0.002802918218938409 0.0010715917019953208 0.0013838227111545216 0.012367545890811167 24.03840075870724 0.022324912435159827 0.016025230211127506 28.844769840967224 -0.008930524533611862 0.02254938788664997 28.90115244824523 0.007734597284975884 -0.015138300237348457 11.525395577881884 2.7511794007031534 14.692027717126292 -62.87634561146775 2.111316282083143 -23.392037136554272 -12.976119780566254 -4.327367426263281 -85.44154753470914 -12.184427578955308 -3.199770915405988 -0.9487095707440826 -0.4774931894066483 0.019383640019680237 -8.097891924978462 0.0390022315068504 0.003522034925031316 44.610647942941206 0.03400170731670709 0.03617550199505612 44.53513414860957 12.449191567618266 -0.02064056410509792 -0.005625297137661552 -0.011917118250091714 0.031603660953603056 -0.03188504009893195 -0.021867977524773978 -0.04177498032258496 -0.0010323788268933212 11.097083915069762 0.0006119005894423007 -0.00031631652151708855 -0.01859480963545665 -0.02098481036398592 0.02791756204514326 -0.041962947110467615 -0.00757585612545942 0.02426592829925095 4.747960805495319 0.027189520607755514 0.03004095278166874 0.011510130224901348 0.006993036074328606 0.008652673436220833 -0.02759617351088178 -0.015975332724813707 -0.020667226323293826 -5.611638357621356 -0.019878360091883745 0.007843684630473885 -6.7499491627920545 0.0351021655860386 0.018432129577818066 -6.735624657606409 -0.04070021645694385 0.026250233658079353 -0.023547433399196103 0.004601680495505858 -0.0329928583401791 8.040145611076907 3.457646108818935 -19.204596547354985 -0.016812125086453415 10.425188743979598 -0.0326586250289858 -5.622697411777201 -15.689233899110418 3.208007769488856 -0.019566324549887104 -0.0024386276974219267 -0.016288829568660446 -0.008768862572557774 4.700755462325371 -0.018713085326428368 12.478539772331743 -8.203135622837507 6.849112779321672 0.029923973153812407 46.37659947184553 0.000663991456304511 -4.282525970257198 -14.75512818953678 -3.849818785580212 -0.035928214286311065 0.015039822460191131 0.0030495969890792386 -0.042806193922349245 -10.750472933998786 -0.027127078711303418 
0.038270596553417274 -0.0047822897200511675 0.008064884669712277 -0.042696600675139015 0.02988130040858915 0.02338219572231723 3.5165174547134113 4.462477256050768 -1.808149226860714 -0.7709578908409153 3.4690381981191 0.3805884420016066 -0.6674028403387295 -1.1830303267868234 -0.5557939249910439 -0.42519831096050437 -0.41215072058443675 -0.5698878446276523 -0.43913913982692226 12.651498979246195 -0.933179541270966 0.33611137742408664 -0.39998563353868416 -2.0394746403417425 0.668064265406523 -16.632756348474505 -0.17136376689956556 -9.411256465969922 3.3843882271728782 -16.926559373397517 73.24140317840322 -6.62193933056158 1.1044999934370536 1.3363979563637332 -0.27332031675866 67.68203596041452 16.03922844397296 -0.32035585230419633 -1.9567066171429162 4.549755420321279 -0.1669373050098002 -1.5848799561821476 0.0003676192959383344 -0.0016467247355046323 -56.23700327023342 -0.009611165452688558 -0.02491823068434143 -56.25912023633012 -38.805494067293715 -0.040735854691559686 -0.01778777332091579 0.045388177352796565 0.0011589948957362623 0.03444362285445683 0.034770247617762 -0.012463961907608952 -0.013594838886418496 -36.683083314695814 0.02927756910479634 0.04879860114639208 0.0034521110673494146 -0.00860750438914004 0.02676824324756925 0.037145054574453565 -0.003015834051926406 -0.030066923716989033 -19.716141872166308 0.037635437103071885 -0.00184957516841765 -0.03179084040104644 -0.02130381114946999 -0.01986103296512549 0.028535919662205655 -0.04369895539619459 0.0009449672469758484 24.08640457198952 0.039827023752406626 0.02530078774691105 28.851388452186306 -0.0308164813878922 0.0012188070018599104 28.86620825695494 -0.04757028828288602 0.0076454498835145 11.947797002955094 2.781927279506991 14.81909284152264 -62.38365576099171 1.6440440171792072 -24.17920731743835 -12.621648024523168 -5.051181064070651 -86.3340133715342 -11.977322863531858 -3.3999686201576336 -0.9022714311450367 -0.4853658652086745 0.06660191457170256 -8.153634947066541 -0.025166458536935738 0.027343585674915388 44.5689588144029 0.01426898384814093 0.021929746304717786 44.585238427088676 12.472224470269156 -0.039891016601017855 -0.025614788351895054 -0.006932515381135029 -0.04348890873581459 0.015642691833495887 0.03386780843317328 -0.023956086492316665 -0.027959512820155373 11.101676508846493 -0.005085390680843489 -0.0452013935336638 0.00450049649330954 0.011095836838690684 -0.020499667464328575 -0.021021714477382117 -0.008695546143280573 0.040238367779945834 4.74198669891419 0.00962406475558125 -0.008380729242044794 0.0033508110914570143 0.020036135357268232 0.01923615390781796 0.019382005684448044 0.013690958354460887 0.010134067464266884 -5.638244272614415 0.02944320353989172 0.010290383753662459 -6.745720923113057 0.03337777783376644 -0.0030649890229706594 -6.705654646099738 -0.04555221699162721 -0.02867599900294102 0.03611784543150991 -0.01241243415729039 -0.039002592083115684 8.0156187234131 3.4816579397117318 -19.263461547991874 -0.02308129459422035 10.382835064189532 -0.02662439253084189 -5.57728797361606 -15.646033858412924 3.235147752061964 -0.042987257153589614 0.013645977025605079 0.017557132061127197 -0.03510422563371375 4.682870461251758 0.04186893352592696 12.449404857080596 -8.229449033600305 6.837301391327063 -0.0261604418076784 46.36920061349227 0.014453944432365935 -4.311594865197506 -14.78131563108668 -3.816513100758426 0.013500252016449528 -0.03514403916250642 -0.005248169228133475 -0.02869178703658785 -10.697747012071432 -0.046427765194816936 
-0.021903669664087713 0.01641782613573172 0.03807018054107253 -0.006057390780101081 0.043722593518000265 -0.03494484898595814 3.5630327910104147 4.473836711523051 -1.8924048636195698 -0.8128118282840214 3.470948299168882 0.33807440008052647 -0.6668126660858741 -1.2411738657887827 -0.6373946700227794 -0.42591347892242526 -0.4502303477846922 -0.5386031898751609 -0.5247320248820537 12.656724039235758 -0.8649374091265354 0.3233711594042377 -0.48056647966555066 -1.7230643394321887 0.6074730452637436 -16.662347033204238 -0.1408705769037537 -9.422275672189613 3.349428320385551 -17.059185204357362 73.5994258780638 -6.453367422864898 0.11757466026304128 1.042774970260823 -1.029036763063986 68.0093211218851 16.407896070425913 -0.39114996126447776 -2.017923341734122 4.541664338955112 -0.09685337064465216 -1.594535088169541 0.04373805993018391 -0.04209805721559441 -56.22009446947872 0.041498938244308815 -0.045140508765639506 -56.2778718682121 -38.7792050191088 0.011915092319479926 0.015022596388319308 0.03262917449005987 -0.04200423247542231 0.02615012843466262 0.04327434011952837 -0.007983642391291292 0.02058403966760217 -36.731790673206945 0.0187914573525698 0.027164647976656756 0.009949143945977248 -0.003624629884853552 -0.006817879112584881 -0.023900199717892555 0.03277703829053503 -0.013297728340087371 -19.710869351858435 -0.0336217389287889 -0.04807577327369103 0.005416792756303687 -0.010753984828844253 0.00019260175343031828 0.015417348380016575 -0.04826831933171172 -0.043878901731171274 24.06957282952561 -0.002511814462432471 0.0355873225102604 28.865534829909052 -0.02676704262733279 0.037252570468647495 28.887404370733343 -0.017388470305596336 0.014914014395665795 12.212615933149157 2.8353169483149614 14.80580180283984 -61.99654398921005 1.261997931500387 -24.699801351973782 -12.841004587649422 -5.760818159385729 -87.3776940749079 -12.046119059358768 -3.5484629507045407 -0.9322100768337058 -0.4906949620819125 0.07317324654393392 -8.154489489992033 -0.009644144190517208 0.012160490096430148 44.563709840307205 0.047464956668821154 -0.01845266191982153 44.52137589327915 12.46487098078994 -0.012689103522739402 -0.044439791100116824 0.02766208013793443 0.014689622041238535 0.034574541813006385 -0.012454024519661178 -0.020304201333684956 0.029066580850633714 11.056881449744806 0.015158563160334702 -0.005153311865223794 -0.035661750108358106 -0.007356330428166703 0.03457587004651209 -0.02157295931907374 0.013713175223225339 -0.009088280556128682 4.723248728950198 -0.029736367364227516 -0.011010949145029064 0.015062704023296104 0.048422627160927025 0.04689122450720158 -0.012804176487551151 0.030815192511430882 -0.005277250845001262 -5.593958768156964 0.029035472425174257 0.03866358159314193 -6.7445690586450295 0.01326997866669289 -0.008306719048347011 -6.690522310325261 0.030124263960283372 0.014213441719962918 0.003221682712019864 0.021485777650950586 -0.046705768787017654 8.073320384004154 3.518479648443573 -19.177981258196056 -0.04368149948711494 10.365215280437079 0.0522293152698783 -5.594054969595467 -15.624463315589134 3.1774456014357195 -0.019577831937486963 -0.03236633089704456 -0.011090284751678538 -0.003217200873482908 4.683443501757683 -0.01335154590599572 12.467168719617138 -8.214795862292625 6.859543458282577 -0.03235534806174849 46.39397601335956 -0.03293200903917458 -4.298155121926828 -14.731579168769374 -3.867420643983431 0.02391028480391701 0.04554748968838063 0.004846818113730012 0.03987471598157711 -10.765131739081504 -0.035037448150833345 
0.013374558937596146 0.021724202421376293 0.04171433194268651 0.048319132323798426 -0.010886724485288955 0.035275305275035855 3.3107147952717213 4.549001230965557 -1.8716656230224256 -0.8278617564374222 3.469939924818392 0.349313471473838 -0.677070731112809 -1.2164585097606357 -0.7857861417495569 -0.4440776708846606 -0.4499551466458895 -0.6218071908332625 -0.5495266215850785 12.416329562040476 -0.9549638279859533 0.35799362413791286 -0.5163512859371907 -1.816260402367357 0.6910120022991673 -16.7735191496433 -0.1810290792324072 -9.081743443819104 3.3536968952253297 -16.90373927318316 73.59891283482911 -6.815228489762669 -0.8445318100187708 0.4192000934932555 -1.3294861507072064 68.22472806662816 17.43586635953712 -0.4331853306713642 -2.140192690598326 4.57112487837662 -0.1311285408290674 -1.6237888009913548 0.0013773855214317596 0.016927843143169693 -56.228023488122034 -0.029286212001599716 0.03324204991013035 -56.264682573366024 -38.74621830092176 0.024599896812489537 -0.002262229500069227 0.04417668352934487 -0.011432281762232438 -0.02327013851017961 0.002509741567908178 0.015872129855062214 0.0227660503362922 -36.71824680418512 -0.04128102602410776 0.013365542376898971 0.012721603882950046 -0.028263941299188515 0.010658978383551398 -0.013344682018423976 -0.040075352565047566 -0.0013329366080266128 -19.782070274515302 0.024421858902388398 -0.02495520028731447 0.03471353527629116 -0.023570494194274864 0.012553026567110092 0.0043244237770124596 0.013341248592843587 -0.023169379453702416 24.096863695978083 0.00412135918074015 -0.030342294383798298 28.891049029874395 -0.038792683164467316 0.030176369936799254 28.905631650008914 0.018653303797354543 -0.04076583614998695 11.942431975108704 2.8447810441586903 14.698548692438038 -61.347257014343995 1.0032531838671221 -24.965838099170643 -13.334777285797966 -6.1633122014141275 -88.70621180884244 -12.404668948023675 -3.640943665434352 -1.0461362997073194 -0.5182197421161066 0.06386663605899878 -8.12014293251557 -0.012906119762938538 0.006424889392009884 44.52981351682077 -0.005937367437807242 0.004055425364656413 44.543148096431494 12.43087446919554 -0.03544874253036004 0.04233779359300137 0.048126565710153946 0.040121221928055874 0.012464601852249445 0.0032140957332473176 0.026126400052595398 -0.018510862016466418 11.132530676075664 -0.008986075350744804 0.02625541965386201 0.04823639982400103 -0.016804894789871398 0.0265238397357493 0.02453612256675214 0.008289922099720749 0.035708758819217916 4.73687051183923 0.00814118251147036 0.014139179371001726 -0.014570262237252635 0.0487507223139274 -0.008867389247360035 0.006067119976697981 0.019660936941461617 0.0038177327905668285 -5.610041971787966 0.04639362043966734 -0.010103620813902639 -6.71657484837532 -0.04046420864102588 -0.0159676945177672 -6.673029069155899 -0.037418121782552605 0.0002157276305213654 0.03467873684832575 -0.0369047558793966 0.01239128155832876 8.025521093489127 3.539129808400133 -19.240189946126726 0.04303391328963436 10.41869639790957 0.018932849034461338 -5.589289044247416 -15.668413743270268 3.2199199116978128 0.003011285546350237 -0.02432342973563075 -0.009846379166417101 -0.019380700490676125 4.741694224382311 0.03199698185522942 12.455962885328164 -8.266588864455283 6.912232873484208 0.0358856502957816 46.39512175235241 -0.04762905223717749 -4.328664743211968 -14.773552705150935 -3.8733511247972303 0.013563897083590081 -0.0028080812914932553 0.017876180782669903 0.0009601242712593154 -10.74983237598592 0.04391845667660471 
